<svg width="32" height="32" viewBox="0 0 32 32" fill="none" xmlns="http://www.w3.org/2000/svg">
<path d="M31.9764 15.9882C31.9764 7.15816 24.8182 0 15.9882 0C7.15816 0 0 7.15816 0 15.9882C0 24.8182 7.15816 31.9764 15.9882 31.9764C24.8182 31.9764 31.9764 24.8182 31.9764 15.9882Z" fill="#FFFF00"/>
<path d="M3.75197 14.7933C3.27974 12.1152 3.04363 10.7761 3.38446 9.66131C3.68426 8.68069 4.28681 7.82017 5.10575 7.20306C6.03675 6.50149 7.37581 6.26538 10.054 5.79316L18.1441 4.36665C20.8222 3.89442 22.1613 3.65831 23.2761 3.99914C24.2567 4.29894 25.1172 4.90149 25.7343 5.72043C26.4359 6.65143 26.672 7.99049 27.1442 10.6686L28.2538 16.9611C28.726 19.6393 28.9621 20.9783 28.6213 22.0931C28.3215 23.0737 27.7189 23.9343 26.9 24.5514C25.969 25.2529 24.6299 25.489 21.9518 25.9613L13.8617 27.3878C11.1836 27.86 9.84446 28.0961 8.72966 27.7553C7.74905 27.4555 6.88852 26.8529 6.27141 26.034C5.56985 25.103 5.33373 23.7639 4.86151 21.0858L3.75197 14.7933Z" fill="#7000FF"/>
<path d="M20.5487 11.0839C21.0311 11.1901 21.4979 11.2808 21.9559 11.398C22.4426 11.5219 22.9249 11.6724 23.4072 11.8073C23.4758 11.8272 23.5024 11.8538 23.5024 11.9312C23.5001 13.4379 23.5156 14.9468 23.4957 16.4535C23.4736 18.073 22.9625 19.5376 21.978 20.8252C20.8806 22.2611 19.4447 23.1859 17.6881 23.6063C16.9956 23.7722 16.2898 23.8275 15.5796 23.7855C13.8915 23.6859 12.3959 23.0908 11.1171 21.9868C9.79849 20.8518 8.96661 19.4226 8.63253 17.7101C8.5374 17.2234 8.49979 16.73 8.49979 16.2344C8.49757 14.8074 8.49979 13.3826 8.49536 11.9556C8.49536 11.8604 8.52634 11.8272 8.61262 11.8007C9.533 11.5064 10.4711 11.2741 11.4202 11.1016C11.4291 11.0993 11.4379 11.1016 11.46 11.0993C11.46 11.137 11.46 11.1746 11.46 11.21C11.46 12.9998 11.4534 14.7919 11.4645 16.5818C11.4711 17.4845 11.5928 18.3761 11.9003 19.2323C12.1437 19.9115 12.5043 20.5177 13.0419 21.0089C13.5464 21.4669 14.1371 21.7567 14.7986 21.8983C15.7345 22.0996 16.6681 22.0841 17.5863 21.7943C18.6704 21.4536 19.4226 20.7323 19.9049 19.7168C20.1638 19.1748 20.3187 18.5995 20.416 18.0088C20.5244 17.3517 20.551 16.688 20.551 16.0242C20.551 14.4269 20.551 12.8273 20.551 11.2299C20.5487 11.1878 20.5487 11.148 20.5487 11.0839Z" fill="white"/>
<path d="M17.3163 14.4027C16.4335 14.4027 15.5596 14.4027 14.6813 14.4027C14.6813 12.3452 14.6813 10.2898 14.6813 8.23665C14.9556 8.15036 16.7942 8.14372 17.3163 8.23001C17.3163 10.2876 17.3163 12.3452 17.3163 14.4027Z" fill="white"/>
</svg>
